<svg width="20" height="20" viewBox="0 0 20 20" fill="none" xmlns="http://www.w3.org/2000/svg">
<g clip-path="url(#clip0_630_8746)">
<path d="M3.53433 6.45328C3.80226 6.1828 4.2371 6.18103 4.50503 6.45524L10.4855 12.5607C10.7531 12.8339 10.7521 13.2747 10.4835 13.5461C10.3501 13.6807 10.1747 13.7501 10.0002 13.7502C9.82369 13.7502 9.64733 13.6817 9.51382 13.5451L3.53335 7.43961C3.2656 7.16635 3.26653 6.72466 3.53433 6.45328ZM15.4943 6.45524C15.7622 6.18132 16.1961 6.18305 16.464 6.45328C16.7329 6.72468 16.7339 7.16633 16.4669 7.43961L12.4953 11.4943C12.3618 11.6308 12.1854 11.6994 12.0099 11.6994C11.8354 11.6994 11.66 11.6309 11.5265 11.4963C11.2577 11.2248 11.2566 10.7832 11.5236 10.5099L15.4943 6.45524Z" fill="#A0AEC0"/>
</g>
<defs>
<clipPath id="clip0_630_8746">
<rect width="20" height="20" fill="white"/>
</clipPath>
</defs>
</svg>
