<svg width="14" height="15" viewBox="0 0 14 15" fill="none" xmlns="http://www.w3.org/2000/svg">
<path d="M4.6875 0.9375V1.875H8.4375V0.9375C8.4375 0.439453 8.84766 0 9.375 0C9.87305 0 10.3125 0.439453 10.3125 0.9375V1.875H11.7188C12.4805 1.875 13.125 2.51953 13.125 3.28125V4.6875H0V3.28125C0 2.51953 0.615234 1.875 1.40625 1.875H2.8125V0.9375C2.8125 0.439453 3.22266 0 3.75 0C4.24805 0 4.6875 0.439453 4.6875 0.9375ZM0 5.625H13.125V13.5938C13.125 14.3848 12.4805 15 11.7188 15H1.40625C0.615234 15 0 14.3848 0 13.5938V5.625ZM1.875 8.90625C1.875 9.16992 2.08008 9.375 2.34375 9.375H3.28125C3.51562 9.375 3.75 9.16992 3.75 8.90625V7.96875C3.75 7.73438 3.51562 7.5 3.28125 7.5H2.34375C2.08008 7.5 1.875 7.73438 1.875 7.96875V8.90625ZM5.625 8.90625C5.625 9.16992 5.83008 9.375 6.09375 9.375H7.03125C7.26562 9.375 7.5 9.16992 7.5 8.90625V7.96875C7.5 7.73438 7.26562 7.5 7.03125 7.5H6.09375C5.83008 7.5 5.625 7.73438 5.625 7.96875V8.90625ZM9.84375 7.5C9.58008 7.5 9.375 7.73438 9.375 7.96875V8.90625C9.375 9.16992 9.58008 9.375 9.84375 9.375H10.7812C11.0156 9.375 11.25 9.16992 11.25 8.90625V7.96875C11.25 7.73438 11.0156 7.5 10.7812 7.5H9.84375ZM1.875 12.6562C1.875 12.9199 2.08008 13.125 2.34375 13.125H3.28125C3.51562 13.125 3.75 12.9199 3.75 12.6562V11.7188C3.75 11.4844 3.51562 11.25 3.28125 11.25H2.34375C2.08008 11.25 1.875 11.4844 1.875 11.7188V12.6562ZM6.09375 11.25C5.83008 11.25 5.625 11.4844 5.625 11.7188V12.6562C5.625 12.9199 5.83008 13.125 6.09375 13.125H7.03125C7.26562 13.125 7.5 12.9199 7.5 12.6562V11.7188C7.5 11.4844 7.26562 11.25 7.03125 11.25H6.09375ZM9.375 12.6562C9.375 12.9199 9.58008 13.125 9.84375 13.125H10.7812C11.0156 13.125 11.25 12.9199 11.25 12.6562V11.7188C11.25 11.4844 11.0156 11.25 10.7812 11.25H9.84375C9.58008 11.25 9.375 11.4844 9.375 11.7188V12.6562Z" fill="#FF3B00"/>
</svg>
