<svg width="16" height="16" viewBox="0 0 16 16" fill="none" xmlns="http://www.w3.org/2000/svg">
<path fill-rule="evenodd" clip-rule="evenodd" d="M3.33301 2.66797C2.22844 2.66797 1.33301 3.5634 1.33301 4.66797V11.3346C1.33301 12.4392 2.22844 13.3346 3.33301 13.3346H12.6663C13.7709 13.3346 14.6663 12.4392 14.6663 11.3346V4.66797C14.6663 3.5634 13.7709 2.66797 12.6663 2.66797H3.33301ZM2.72722 4.38926C2.83275 4.16026 3.06432 4.0013 3.33301 4.0013H12.6663C12.935 4.0013 13.1666 4.16026 13.2721 4.38926L8.40897 8.17172C8.16823 8.35896 7.83112 8.35896 7.59038 8.17172L2.72722 4.38926ZM2.66634 6.03106V9.91127L5.07475 7.90427L2.66634 6.03106ZM2.72161 11.6008C2.82437 11.8365 3.05945 12.0013 3.33301 12.0013H12.6663C12.9399 12.0013 13.175 11.8365 13.2777 11.6008L9.84732 8.74215L9.22756 9.22419C8.50533 9.78592 7.49402 9.78592 6.77179 9.22419L6.15202 8.74215L2.72161 11.6008ZM13.333 9.91127V6.03106L10.9246 7.90427L13.333 9.91127Z" fill="#4C5564"/>
</svg>
