<svg width="24" height="24" viewBox="0 0 24 24" fill="none" xmlns="http://www.w3.org/2000/svg">
<path fill-rule="evenodd" clip-rule="evenodd" d="M2 12C2 17.5228 6.47715 22 12 22C17.5228 22 22 17.5228 22 12C22 6.47715 17.5228 2 12 2C6.47715 2 2 6.47715 2 12ZM11.4415 4.01919C11.626 4.00647 11.8122 4 12 4C12.1878 4 12.374 4.00647 12.5585 4.01919C12.5927 4.06251 12.6296 4.11028 12.6687 4.1625C12.9182 4.49504 13.2603 5.00672 13.6056 5.69721C14.2106 6.90723 14.8285 8.67273 14.9699 11L9.03006 11C9.17152 8.67273 9.78942 6.90723 10.3944 5.69721C10.7397 5.00672 11.0818 4.49504 11.3313 4.1625C11.3704 4.11028 11.4073 4.06251 11.4415 4.01919ZM7.02676 13C7.17162 15.682 7.88194 17.75 8.60557 19.1972L8.63784 19.2613C6.18755 18.1249 4.40914 15.7847 4.06189 13H7.02676ZM7.02676 11H4.06189C4.40914 8.21535 6.18754 5.87515 8.63783 4.73869L8.60557 4.80279C7.88194 6.25005 7.17162 8.31798 7.02676 11ZM9.03006 13L14.9699 13C14.8285 15.3273 14.2106 17.0928 13.6056 18.3028C13.2603 18.9933 12.9182 19.505 12.6687 19.8375C12.6296 19.8897 12.5927 19.9375 12.5585 19.9808C12.374 19.9935 12.1878 20 12 20C11.8122 20 11.626 19.9935 11.4415 19.9808C11.4073 19.9375 11.3704 19.8897 11.3313 19.8375C11.0818 19.505 10.7397 18.9933 10.3944 18.3028C9.78942 17.0928 9.17152 15.3273 9.03006 13ZM16.9732 13C16.8284 15.682 16.1181 17.75 15.3944 19.1972L15.3622 19.2613C17.8125 18.1249 19.5909 15.7847 19.9381 13H16.9732ZM19.9381 11C19.5909 8.21535 17.8125 5.87515 15.3622 4.73869L15.3944 4.80279C16.1181 6.25005 16.8284 8.31798 16.9732 11H19.9381Z" fill="white"/>
</svg>
