<svg width="24" height="24" viewBox="0 0 24 24" fill="none" xmlns="http://www.w3.org/2000/svg">
<path fill-rule="evenodd" clip-rule="evenodd" d="M13.3833 2.03472C13.8195 2.1526 14.1224 2.54828 14.1224 3.00009V9.50009H17C17.3576 9.50009 17.688 9.69104 17.8665 10.0009C18.045 10.3108 18.0445 10.6924 17.8651 11.0017L11.7767 21.5017C11.5498 21.893 11.0886 22.0832 10.6518 21.9658C10.2151 21.8483 9.91156 21.4523 9.91156 21.0001V14.5001H7C6.64197 14.5001 6.31125 14.3087 6.1329 13.9982C5.95455 13.6878 5.95578 13.3057 6.13613 12.9964L12.2586 2.49638C12.4862 2.10607 12.9472 1.91685 13.3833 2.03472ZM8.74067 12.5001H10.9116C11.4639 12.5001 11.9116 12.9478 11.9116 13.5001V17.282L15.2642 11.5001H13.1224C12.5702 11.5001 12.1224 11.0524 12.1224 10.5001V6.70034L8.74067 12.5001Z" fill="#8A36F1"/>
</svg>
