<svg width="24" height="24" viewBox="0 0 24 24" fill="none" xmlns="http://www.w3.org/2000/svg">
<path d="M21.5944 21.5978V21.597H21.5991V14.5554C21.5991 11.1107 20.8575 8.45703 16.8303 8.45703C14.8943 8.45703 13.5951 9.51951 13.0647 10.5266H13.0088V8.77863H9.19043V21.597H13.1665V15.2498C13.1665 13.5786 13.4833 11.9625 15.5528 11.9625C17.5921 11.9625 17.6223 13.8698 17.6223 15.3568V21.5978H21.5944Z" fill="#0073B1"/>
<path d="M2.71582 8.78125H6.69669V21.5997H2.71582V8.78125Z" fill="#0073B1"/>
<path d="M4.7051 2.39844C3.43214 2.39844 2.39941 3.43116 2.39941 4.70411C2.39941 5.97707 3.43214 7.03139 4.7051 7.03139C5.97806 7.03139 7.01078 5.97707 7.01078 4.70411C7.00982 3.43116 5.9771 2.39844 4.7051 2.39844Z" fill="#0073B1"/>
</svg>
