<svg width="24" height="24" viewBox="0 0 24 24" fill="none" xmlns="http://www.w3.org/2000/svg">
<path fill-rule="evenodd" clip-rule="evenodd" d="M16.6415 15.6372C18.0423 13.7703 19 11.7184 19 9.64148C19 5.92949 15.866 2.92033 12 2.92033C8.13401 2.92033 5 5.92949 5 9.64148C5 11.7184 5.95769 13.7703 7.35846 15.6372C8.74868 17.4901 10.4581 19.0034 11.6769 19.9618C11.8768 20.119 12.1232 20.119 12.3231 19.9618C13.5419 19.0034 15.2513 17.4901 16.6415 15.6372ZM13.5904 21.4474C16.1746 19.4151 21 14.9144 21 9.64148C21 4.86893 16.9706 1 12 1C7.02944 1 3 4.86893 3 9.64148C3 14.9144 7.82537 19.4151 10.4096 21.4474C11.3466 22.1842 12.6534 22.1842 13.5904 21.4474Z" fill="#212121"/>
<path fill-rule="evenodd" clip-rule="evenodd" d="M12 7.72501C10.8954 7.72501 10 8.58477 10 9.64534C10 10.7059 10.8954 11.5657 12 11.5657C13.1046 11.5657 14 10.7059 14 9.64534C14 8.58477 13.1046 7.72501 12 7.72501ZM8 9.64534C8 7.5242 9.79086 5.80469 12 5.80469C14.2091 5.80469 16 7.5242 16 9.64534C16 11.7664 14.2091 13.486 12 13.486C9.79086 13.486 8 11.7664 8 9.64534Z" fill="#212121"/>
</svg>
