<svg width="16" height="16" viewBox="0 0 16 16" fill="none" xmlns="http://www.w3.org/2000/svg">
<path fill-rule="evenodd" clip-rule="evenodd" d="M4.20219 2.66398C4.2022 2.66397 4.20237 2.66414 4.20264 2.66455L4.20219 2.66398ZM4.2309 2.7095L5.56907 4.83872C5.40737 4.99203 5.23099 5.14388 5.04116 5.3073C4.87801 5.44776 4.70493 5.59677 4.5227 5.7626C4.07104 6.17362 3.9838 6.83466 4.27611 7.3491C5.82185 10.0695 7.93012 11.3073 8.87349 11.7518C9.4418 12.0195 10.0593 11.8082 10.403 11.3707L11.329 10.192C11.3296 10.1912 11.3295 10.1914 11.3292 10.1916C11.3291 10.1917 11.3298 10.1913 11.3312 10.1911C11.3326 10.1908 11.334 10.1908 11.3351 10.191C11.336 10.1912 11.3372 10.1915 11.3391 10.1927C11.8787 10.5257 12.6315 10.9783 13.323 11.3615C13.1988 12.1113 12.9135 12.548 12.599 12.8151C12.2687 13.0955 11.8415 13.243 11.3651 13.2963C10.4139 13.4027 9.44823 13.1141 9.23406 13.0438C8.99773 12.923 7.70204 12.241 6.31779 11.1357C4.8904 9.99609 3.45913 8.47726 2.91173 6.73531C2.51168 5.46223 2.66253 4.56637 2.97696 3.94842C3.28093 3.35105 3.77282 2.94559 4.2309 2.7095ZM3.74682 1.44934C4.37744 1.15024 5.02952 1.46209 5.33326 1.94538L6.73318 4.17285C7.0162 4.62317 7.0356 5.28146 6.5755 5.73242C6.37831 5.92568 6.10397 6.16323 5.84868 6.38427C5.70855 6.50561 5.57416 6.62197 5.46142 6.72331C6.79176 9.03982 8.57034 10.1116 9.37927 10.5035L10.2798 9.35722C10.7049 8.81604 11.4619 8.68955 12.0384 9.04533C12.5717 9.37446 13.3089 9.81743 13.977 10.1873C14.4226 10.434 14.7413 10.9483 14.651 11.5289C14.4888 12.5718 14.0651 13.3314 13.4614 13.8439C12.8678 14.3478 12.1606 14.5616 11.5128 14.6341C10.2387 14.7765 9.02001 14.3907 8.79746 14.3162C8.74112 14.2973 8.69436 14.2774 8.6441 14.2519C8.40518 14.1305 6.99721 13.3964 5.48645 12.1902C3.9914 10.9965 2.30535 9.2698 1.63643 7.14113C1.14508 5.57752 1.29043 4.30971 1.78642 3.33496C2.27371 2.3773 3.06284 1.77375 3.74682 1.44934Z" fill="#4C5564"/>
</svg>
