<svg width="11" height="14" viewBox="0 0 11 14" fill="none" xmlns="http://www.w3.org/2000/svg">
<path d="M11 2.5V13.5C11.0002 13.5918 10.9751 13.6819 10.9275 13.7604C10.8798 13.8389 10.8115 13.9028 10.73 13.945C10.6588 13.9815 10.58 14.0003 10.5 14C10.398 13.9998 10.2986 13.9684 10.215 13.91L5.5 10.61L0.785 13.91C0.712111 13.9593 0.627496 13.9885 0.539702 13.9947C0.451909 14.0008 0.364049 13.9837 0.285 13.945C0.200674 13.9048 0.12928 13.8419 0.0789089 13.7632C0.0285374 13.6846 0.00120187 13.5934 0 13.5V2.5C0 1.83696 0.263392 1.20107 0.732233 0.732233C1.20107 0.263392 1.83696 0 2.5 0H8.5C9.16304 0 9.79893 0.263392 10.2678 0.732233C10.7366 1.20107 11 1.83696 11 2.5Z" fill="black"/>
</svg>
