<svg width="24" height="24" viewBox="0 0 24 24" fill="none" xmlns="http://www.w3.org/2000/svg">
<path d="M12.0001 2.39844C6.69855 2.39844 2.40015 6.69684 2.40015 11.9984C2.40015 14.1008 3.07695 16.0472 4.22655 17.6288L2.90655 21.0992L6.71535 20.0144C8.22975 21.0152 10.0465 21.5984 12.0001 21.5984C17.3017 21.5984 21.6001 17.3 21.6001 11.9984C21.6001 6.69684 17.3017 2.39844 12.0001 2.39844ZM17.1025 15.9752L16.0801 16.9976C15.0049 18.0728 12.1537 16.8896 9.62655 14.3624C7.09695 11.8328 5.96655 8.98164 6.98895 7.90644L8.01135 6.88404C8.38815 6.50724 9.03375 6.50724 9.46335 6.88404L10.9705 8.39124C11.5081 8.92884 11.2921 9.84324 10.5937 10.0568C10.1089 10.22 9.78735 10.7576 9.94815 11.2424C10.2169 12.3704 11.6689 13.7696 12.7465 14.0384C13.2289 14.1464 13.7689 13.8776 13.9297 13.3928C14.1433 12.6944 15.0601 12.4784 15.5977 13.016L17.1025 14.5232C17.4793 14.9 17.4793 15.5456 17.1025 15.9752Z" fill="#4CAF50"/>
</svg>
