<svg width="24" height="24" viewBox="0 0 24 24" fill="none" xmlns="http://www.w3.org/2000/svg">
<path fill-rule="evenodd" clip-rule="evenodd" d="M5.54807 6.40074C6.88709 6.19242 8.95041 6 12 6C15.0496 6 17.1129 6.19242 18.4519 6.40074C19.3571 6.54155 20 7.3358 20 8.47214V15.5279C20 16.6642 19.3571 17.4584 18.4519 17.5993C17.1129 17.8076 15.0496 18 12 18C8.95041 18 6.88709 17.8076 5.54807 17.5993C4.6429 17.4584 4 16.6642 4 15.5279V8.47214C4 7.3358 4.6429 6.54155 5.54807 6.40074ZM12 4C8.86886 4 6.70051 4.19739 5.24062 4.42451C3.15163 4.7495 2 6.57829 2 8.47214V15.5279C2 17.4217 3.15163 19.2505 5.24062 19.5755C6.70051 19.8026 8.86886 20 12 20C15.1311 20 17.2995 19.8026 18.7594 19.5755C20.8484 19.2505 22 17.4217 22 15.5279V8.47214C22 6.57829 20.8484 4.7495 18.7594 4.42451C17.2995 4.19739 15.1311 4 12 4ZM10.5281 9.11833C10.8533 8.94431 11.2478 8.96338 11.5547 9.16795L14.5547 11.168C14.8329 11.3534 15 11.6656 15 12C15 12.3344 14.8329 12.6466 14.5547 12.8321L11.5547 14.8321C11.2478 15.0366 10.8533 15.0557 10.5281 14.8817C10.203 14.7077 10 14.3688 10 14V10C10 9.63121 10.203 9.29235 10.5281 9.11833Z" fill="white"/>
</svg>
