<svg width="1019" height="333" viewBox="0 0 1019 333" fill="none" xmlns="http://www.w3.org/2000/svg">
<path d="M1013.54 73.9103C1168.13 59.2917 1190.01 129.068 1181.62 165.784C1162.28 234.297 1096.37 201.207 1031.16 253.798C965.952 306.389 960.941 248.308 894.433 233.312C827.925 218.317 838.917 298.998 717.96 269.949C597.002 240.9 627.355 118.824 776.144 177.26C924.933 235.697 820.31 92.1836 1013.54 73.9103Z" stroke="#EEEEEE" stroke-opacity="0.12" stroke-width="2"/>
<path d="M990.869 97.084C1109.95 85.8519 1126.83 139.53 1120.38 167.773C1105.51 220.476 1054.72 195.015 1004.5 235.466C954.288 275.916 950.408 231.236 899.169 219.695C847.929 208.154 856.425 270.219 763.236 247.862C670.047 225.506 693.387 131.6 808.026 176.566C922.665 221.532 842.019 111.124 990.869 97.084Z" stroke="#EEEEEE" stroke-opacity="0.12" stroke-width="2"/>
<path d="M1034.68 52.4599C1222.47 34.7307 1249.07 119.421 1238.9 163.982C1215.43 247.135 1135.35 206.967 1056.15 270.792C976.949 334.616 970.843 264.122 890.044 245.916C809.246 227.71 822.627 325.634 675.679 290.367C528.731 255.099 565.561 106.938 746.329 177.875C927.096 248.813 799.951 74.6214 1034.68 52.4599Z" stroke="#EEEEEE" stroke-opacity="0.12" stroke-width="2"/>
<path d="M1052.26 34.4344C1267.54 14.0618 1298 111.27 1286.32 162.421C1259.37 257.871 1167.59 211.774 1076.77 285.044C985.946 358.314 978.979 277.399 886.362 256.51C793.745 235.622 809.039 348.022 640.597 307.558C472.156 267.094 514.447 97.0222 721.641 178.427C928.836 259.831 783.162 59.9003 1052.26 34.4344Z" stroke="#EEEEEE" stroke-opacity="0.12" stroke-width="2"/>
<path d="M1077.73 8.70918C1333.06 -15.3792 1369.25 99.7298 1355.43 160.295C1323.53 273.313 1214.63 218.715 1106.95 305.46C999.276 392.204 990.96 296.392 881.091 271.643C771.223 246.894 789.437 379.989 589.619 332.048C389.8 284.107 439.852 82.7323 685.663 179.157C931.473 275.581 758.556 38.8197 1077.73 8.70918Z" stroke="#EEEEEE" stroke-opacity="0.12" stroke-width="2"/>
<path d="M1107.51 -21.2988C1409.76 -49.7081 1452.69 86.2895 1436.37 157.84C1398.69 291.354 1269.74 226.83 1142.34 329.29C1014.94 431.75 1005.02 318.555 874.939 289.295C744.859 260.035 766.522 417.279 529.941 360.603C293.361 303.927 352.457 66.0306 643.52 179.994C934.584 293.958 729.704 14.2129 1107.51 -21.2988Z" stroke="#EEEEEE" stroke-opacity="0.12" stroke-width="2"/>
</svg>
