<svg width="832" height="315" viewBox="0 0 832 315" fill="none" xmlns="http://www.w3.org/2000/svg">
<path d="M-32.2603 -20.6459C-99.3792 35.3981 3.5905 63.8882 63.4652 71.1278C176.252 83.1972 143.312 48.0496 244.299 37.6924C345.287 27.3353 255.799 8.76357 251.355 -21.4389C246.911 -51.6414 370.066 -24.2723 359.204 -79.7096C348.342 -135.147 148.555 -158.253 197.458 -83.5635C246.36 -8.87385 51.6383 -90.7008 -32.2603 -20.6459Z" stroke="#EEEEEE" stroke-opacity="0.12" stroke-width="2"/>
<path d="M10.5049 -22.8449C-41.1523 20.3346 38.0471 42.2701 84.104 47.8405C170.863 57.1256 145.538 30.054 223.23 22.0647C300.921 14.0753 232.089 -0.221267 228.683 -23.4866C225.278 -46.7519 320.006 -25.6821 311.674 -68.3858C303.342 -111.09 149.661 -128.867 187.248 -71.337C224.835 -13.8068 75.0764 -76.8192 10.5049 -22.8449Z" stroke="#EEEEEE" stroke-opacity="0.12" stroke-width="2"/>
<path d="M-71.8809 -18.5478C-153.369 49.5401 -28.405 84.138 44.2629 92.9259C181.149 107.575 141.184 64.8825 263.759 52.2899C386.334 39.6974 277.729 17.1467 272.349 -19.5419C266.968 -56.2305 416.432 -22.9967 403.272 -90.3392C390.113 -157.682 147.638 -185.729 206.959 -95.0032C266.281 -4.27767 29.9789 -103.658 -71.8809 -18.5478Z" stroke="#EEEEEE" stroke-opacity="0.12" stroke-width="2"/>
<path d="M-105.133 -16.8538C-198.627 61.1902 -55.1693 100.872 28.2461 110.957C185.377 127.771 139.479 78.822 280.166 64.4039C420.854 49.9859 296.181 24.1178 289.983 -17.9428C283.786 -60.0035 455.364 -21.8822 440.219 -99.0856C425.074 -176.289 146.738 -208.478 214.883 -104.461C283.027 -0.44483 11.7343 -114.409 -105.133 -16.8538Z" stroke="#EEEEEE" stroke-opacity="0.12" stroke-width="2"/>
<path d="M-152.694 -14.2972C-263.466 78.2889 -93.626 125.326 5.14052 137.271C191.19 157.182 136.88 99.1335 303.484 82.004C470.088 64.8745 322.48 34.2178 315.176 -15.6687C307.871 -65.5551 511.011 -20.3745 493.14 -111.942C475.269 -203.509 145.709 -241.631 226.317 -118.272C306.925 5.08694 -14.2287 -130.03 -152.694 -14.2972Z" stroke="#EEEEEE" stroke-opacity="0.12" stroke-width="2"/>
<path d="M-208.194 -11.282C-339.154 98.3443 -138.543 153.984 -21.8674 168.101C197.92 191.626 133.812 122.924 330.662 102.607C527.511 82.2897 353.15 46.0347 344.568 -13.0172C335.986 -72.0691 575.941 -18.6346 554.915 -127.024C533.89 -235.413 144.57 -280.463 239.685 -134.454C334.8 11.5545 -44.4946 -148.315 -208.194 -11.282Z" stroke="#EEEEEE" stroke-opacity="0.12" stroke-width="2"/>
</svg>
