<svg width="40" height="40" viewBox="0 0 40 40" fill="none" xmlns="http://www.w3.org/2000/svg">
<path fill-rule="evenodd" clip-rule="evenodd" d="M28.3337 9.9987C28.3337 11.8396 26.8413 13.332 25.0003 13.332H15.0003C13.1594 13.332 11.667 11.8396 11.667 9.9987C10.7465 9.9987 10.0003 10.7449 10.0003 11.6654V31.6654C10.0003 32.5858 10.7465 33.332 11.667 33.332H28.3337C29.2541 33.332 30.0003 32.5858 30.0003 31.6654V11.6654C30.0003 10.7449 29.2541 9.9987 28.3337 9.9987ZM16.667 3.33203C14.49 3.33203 12.6379 4.72338 11.9515 6.66536H11.667C8.90557 6.66536 6.66699 8.90394 6.66699 11.6654V31.6654C6.66699 34.4268 8.90557 36.6654 11.667 36.6654H28.3337C31.0951 36.6654 33.3337 34.4268 33.3337 31.6654V11.6654C33.3337 8.90394 31.0951 6.66536 28.3337 6.66536H28.0491C27.3628 4.72338 25.5107 3.33203 23.3337 3.33203H16.667ZM16.667 9.9987H15.0003V8.33203C15.0003 7.41156 15.7465 6.66536 16.667 6.66536H23.3337C24.2541 6.66536 25.0003 7.41156 25.0003 8.33203V9.9987H23.3337H21.667H18.3337H16.667ZM25.462 21.0479C26.0414 20.3327 25.9314 19.2832 25.2162 18.7037C24.501 18.1243 23.4514 18.2343 22.872 18.9495L18.7134 24.0824L17.0851 22.2312C16.4771 21.5401 15.424 21.4727 14.7329 22.0806C14.0417 22.6886 13.9743 23.7417 14.5822 24.4328L17.5143 27.7661C17.8385 28.1347 18.3088 28.3416 18.7995 28.3317C19.2903 28.3217 19.7517 28.096 20.0607 27.7145L25.462 21.0479Z" fill="white"/>
</svg>
