<svg width="48" height="48" viewBox="0 0 48 48" fill="none" xmlns="http://www.w3.org/2000/svg">
<path d="M26.38 12H13.58C13.06 12 12.56 12.02 12.08 12.08C6.7 12.54 4 15.72 4 21.58V29.58C4 37.58 7.2 39.16 13.58 39.16H14.38C14.82 39.16 15.4 39.46 15.66 39.8L18.06 43C19.12 44.42 20.84 44.42 21.9 43L24.3 39.8C24.6 39.4 25.08 39.16 25.58 39.16H26.38C32.24 39.16 35.42 36.48 35.88 31.08C35.94 30.6 35.96 30.1 35.96 29.58V21.58C35.96 15.2 32.76 12 26.38 12ZM13 28C11.88 28 11 27.1 11 26C11 24.9 11.9 24 13 24C14.1 24 15 24.9 15 26C15 27.1 14.1 28 13 28ZM19.98 28C18.86 28 17.98 27.1 17.98 26C17.98 24.9 18.88 24 19.98 24C21.08 24 21.98 24.9 21.98 26C21.98 27.1 21.1 28 19.98 28ZM26.98 28C25.86 28 24.98 27.1 24.98 26C24.98 24.9 25.88 24 26.98 24C28.08 24 28.98 24.9 28.98 26C28.98 27.1 28.08 28 26.98 28Z" fill="#FF0000"/>
<path d="M43.9595 13.58V21.58C43.9595 25.58 42.7195 28.3 40.2395 29.8C39.6395 30.16 38.9395 29.68 38.9395 28.98L38.9595 21.58C38.9595 13.58 34.3795 9 26.3795 9L14.1995 9.02C13.4995 9.02 13.0195 8.32 13.3795 7.72C14.8795 5.24 17.5995 4 21.5795 4H34.3795C40.7595 4 43.9595 7.2 43.9595 13.58Z" fill="#FF0000"/>
</svg>
