<svg width="24" height="24" viewBox="0 0 24 24" fill="none" xmlns="http://www.w3.org/2000/svg">
<path d="M18.75 3H5.25C4.83579 3 4.5 3.33579 4.5 3.75V20.25C4.5 20.6642 4.83579 21 5.25 21H18.75C19.1642 21 19.5 20.6642 19.5 20.25V3.75C19.5 3.33579 19.1642 3 18.75 3Z" stroke="#C7890B" stroke-width="2" stroke-linecap="round" stroke-linejoin="round"/>
<path d="M7.875 8.25C8.49632 8.25 9 7.74632 9 7.125C9 6.50368 8.49632 6 7.875 6C7.25368 6 6.75 6.50368 6.75 7.125C6.75 7.74632 7.25368 8.25 7.875 8.25Z" fill="#C7890B"/>
<path d="M7.875 18C8.49632 18 9 17.4963 9 16.875C9 16.2537 8.49632 15.75 7.875 15.75C7.25368 15.75 6.75 16.2537 6.75 16.875C6.75 17.4963 7.25368 18 7.875 18Z" fill="#C7890B"/>
<path d="M7.875 13.125C8.49632 13.125 9 12.6213 9 12C9 11.3787 8.49632 10.875 7.875 10.875C7.25368 10.875 6.75 11.3787 6.75 12C6.75 12.6213 7.25368 13.125 7.875 13.125Z" fill="#C7890B"/>
</svg>
