<svg width="48" height="48" viewBox="0 0 48 48" fill="none" xmlns="http://www.w3.org/2000/svg">
<path d="M44 9.69937V33.4794C44 35.4194 42.42 37.1994 40.48 37.4394L39.86 37.5194C36.58 37.9594 31.96 39.3194 28.24 40.8794C26.94 41.4194 25.5 40.4394 25.5 39.0194V11.1994C25.5 10.4594 25.92 9.77938 26.58 9.41937C30.24 7.43937 35.78 5.67937 39.54 5.35938H39.66C42.06 5.35937 44 7.29937 44 9.69937Z" fill="#8A36F1"/>
<path d="M21.4205 9.41937C17.7605 7.43937 12.2205 5.67937 8.46047 5.35938H8.32047C5.92047 5.35938 3.98047 7.29937 3.98047 9.69937V33.4794C3.98047 35.4194 5.56047 37.1994 7.50047 37.4394L8.12047 37.5194C11.4005 37.9594 16.0205 39.3194 19.7405 40.8794C21.0405 41.4194 22.4805 40.4394 22.4805 39.0194V11.1994C22.4805 10.4394 22.0805 9.77938 21.4205 9.41937ZM10.0005 15.4794H14.5005C15.3205 15.4794 16.0005 16.1594 16.0005 16.9794C16.0005 17.8194 15.3205 18.4794 14.5005 18.4794H10.0005C9.18047 18.4794 8.50047 17.8194 8.50047 16.9794C8.50047 16.1594 9.18047 15.4794 10.0005 15.4794ZM16.0005 24.4794H10.0005C9.18047 24.4794 8.50047 23.8194 8.50047 22.9794C8.50047 22.1594 9.18047 21.4794 10.0005 21.4794H16.0005C16.8205 21.4794 17.5005 22.1594 17.5005 22.9794C17.5005 23.8194 16.8205 24.4794 16.0005 24.4794Z" fill="#8A36F1"/>
</svg>
