<svg width="228" height="24" viewBox="0 0 228 24" fill="none" xmlns="http://www.w3.org/2000/svg">
<g opacity="0.8">
<path d="M0 12H121.5" stroke="#D63832" stroke-width="2"/>
<path d="M144.108 18H142.06V12.928H137.036V18H134.988V6.576H137.036V11.184H142.06V6.576H144.108V18ZM150.346 9.168C151.466 9.168 152.314 9.41333 152.89 9.904C153.476 10.384 153.77 11.1413 153.77 12.176V18H152.346L151.946 16.8H151.882C151.636 17.1093 151.38 17.3707 151.114 17.584C150.858 17.7867 150.559 17.9307 150.218 18.016C149.887 18.112 149.482 18.16 149.002 18.16C148.49 18.16 148.026 18.064 147.61 17.872C147.204 17.68 146.884 17.3867 146.65 16.992C146.415 16.5867 146.298 16.08 146.298 15.472C146.298 14.576 146.623 13.904 147.274 13.456C147.935 12.9973 148.932 12.7467 150.266 12.704L151.77 12.656V12.224C151.77 11.6693 151.636 11.2747 151.37 11.04C151.103 10.8053 150.73 10.688 150.25 10.688C149.812 10.688 149.391 10.752 148.986 10.88C148.58 11.008 148.186 11.1573 147.802 11.328L147.162 9.92C147.588 9.696 148.074 9.51467 148.618 9.376C149.172 9.23733 149.748 9.168 150.346 9.168ZM150.714 13.936C149.828 13.968 149.215 14.1227 148.874 14.4C148.532 14.6667 148.362 15.0293 148.362 15.488C148.362 15.8933 148.484 16.1867 148.73 16.368C148.975 16.5493 149.29 16.64 149.674 16.64C150.26 16.64 150.756 16.4747 151.162 16.144C151.567 15.8027 151.77 15.3013 151.77 14.64V13.904L150.714 13.936ZM161.72 18.176C161.72 17.9733 161.725 17.7547 161.736 17.52C161.747 17.2747 161.768 17.056 161.8 16.864H161.704C161.469 17.216 161.149 17.52 160.744 17.776C160.339 18.032 159.805 18.16 159.144 18.16C158.141 18.16 157.331 17.7867 156.712 17.04C156.093 16.2827 155.784 15.1627 155.784 13.68C155.784 12.688 155.928 11.8613 156.216 11.2C156.504 10.528 156.904 10.0213 157.416 9.68C157.928 9.33867 158.52 9.168 159.192 9.168C159.843 9.168 160.376 9.296 160.792 9.552C161.208 9.79733 161.539 10.1013 161.784 10.464H161.848L162.056 9.328H163.736V21.84H161.72V18.176ZM159.784 16.56C160.275 16.56 160.664 16.4693 160.952 16.288C161.251 16.096 161.464 15.808 161.592 15.424C161.731 15.04 161.805 14.56 161.816 13.984V13.696C161.816 12.7573 161.667 12.0427 161.368 11.552C161.069 11.0613 160.531 10.816 159.752 10.816C159.112 10.816 158.632 11.072 158.312 11.584C158.003 12.0853 157.848 12.7947 157.848 13.712C157.848 14.64 158.003 15.3493 158.312 15.84C158.632 16.32 159.123 16.56 159.784 16.56ZM171.736 18.176C171.736 17.9733 171.741 17.7547 171.752 17.52C171.762 17.2747 171.784 17.056 171.816 16.864H171.72C171.485 17.216 171.165 17.52 170.76 17.776C170.354 18.032 169.821 18.16 169.16 18.16C168.157 18.16 167.346 17.7867 166.728 17.04C166.109 16.2827 165.8 15.1627 165.8 13.68C165.8 12.688 165.944 11.8613 166.232 11.2C166.52 10.528 166.92 10.0213 167.432 9.68C167.944 9.33867 168.536 9.168 169.208 9.168C169.858 9.168 170.392 9.296 170.808 9.552C171.224 9.79733 171.554 10.1013 171.8 10.464H171.864L172.072 9.328H173.752V21.84H171.736V18.176ZM169.8 16.56C170.29 16.56 170.68 16.4693 170.968 16.288C171.266 16.096 171.48 15.808 171.608 15.424C171.746 15.04 171.821 14.56 171.832 13.984V13.696C171.832 12.7573 171.682 12.0427 171.384 11.552C171.085 11.0613 170.546 10.816 169.768 10.816C169.128 10.816 168.648 11.072 168.328 11.584C168.018 12.0853 167.864 12.7947 167.864 13.712C167.864 14.64 168.018 15.3493 168.328 15.84C168.648 16.32 169.138 16.56 169.8 16.56ZM178.343 18H176.327V9.328H178.343V18ZM190.857 9.168C191.838 9.168 192.574 9.41867 193.065 9.92C193.566 10.4213 193.817 11.232 193.817 12.352V18H191.801V12.736C191.801 12.096 191.684 11.616 191.449 11.296C191.214 10.9653 190.841 10.8 190.329 10.8C189.625 10.8 189.124 11.0293 188.825 11.488C188.526 11.9467 188.377 12.6133 188.377 13.488V18H186.361V12.736C186.361 12.3093 186.308 11.952 186.201 11.664C186.094 11.376 185.929 11.1627 185.705 11.024C185.492 10.8747 185.214 10.8 184.873 10.8C184.393 10.8 184.009 10.9173 183.721 11.152C183.433 11.376 183.23 11.7067 183.113 12.144C182.996 12.5813 182.937 13.12 182.937 13.76V18H180.921V9.328H182.473L182.761 10.464H182.873C183.054 10.1653 183.273 9.92 183.529 9.728C183.796 9.536 184.089 9.39733 184.409 9.312C184.74 9.216 185.07 9.168 185.401 9.168C186.052 9.168 186.601 9.28 187.049 9.504C187.497 9.71733 187.833 10.0533 188.057 10.512H188.217C188.484 10.0427 188.857 9.70133 189.337 9.488C189.828 9.27467 190.334 9.168 190.857 9.168ZM198.359 18H196.343V9.328H198.359V18ZM206.809 18H200.153V16.768L204.409 10.864H200.393V9.328H206.681V10.688L202.505 16.448H206.809V18ZM211.504 18.16C210.501 18.16 209.685 17.7867 209.056 17.04C208.437 16.2827 208.128 15.1627 208.128 13.68C208.128 12.1973 208.442 11.0773 209.072 10.32C209.701 9.552 210.528 9.168 211.552 9.168C211.978 9.168 212.352 9.22667 212.672 9.344C213.002 9.45067 213.285 9.6 213.52 9.792C213.754 9.984 213.952 10.1973 214.112 10.432H214.208C214.176 10.2827 214.144 10.0533 214.112 9.744C214.08 9.43467 214.064 9.14667 214.064 8.88V5.84H216.08V18H214.512L214.144 16.864H214.064C213.904 17.0987 213.706 17.3173 213.472 17.52C213.237 17.712 212.96 17.8667 212.64 17.984C212.32 18.1013 211.941 18.16 211.504 18.16ZM212.112 16.528C212.858 16.528 213.386 16.3147 213.696 15.888C214.005 15.4613 214.16 14.816 214.16 13.952V13.696C214.16 12.7573 214.01 12.0427 213.712 11.552C213.424 11.0613 212.88 10.816 212.08 10.816C211.472 10.816 211.002 11.072 210.672 11.584C210.341 12.0853 210.176 12.7947 210.176 13.712C210.176 14.6293 210.341 15.328 210.672 15.808C211.002 16.288 211.482 16.528 212.112 16.528ZM222.111 9.168C223.231 9.168 224.079 9.41333 224.655 9.904C225.242 10.384 225.535 11.1413 225.535 12.176V18H224.111L223.711 16.8H223.647C223.402 17.1093 223.146 17.3707 222.879 17.584C222.623 17.7867 222.325 17.9307 221.983 18.016C221.653 18.112 221.247 18.16 220.767 18.16C220.255 18.16 219.791 18.064 219.375 17.872C218.97 17.68 218.65 17.3867 218.415 16.992C218.181 16.5867 218.063 16.08 218.063 15.472C218.063 14.576 218.389 13.904 219.039 13.456C219.701 12.9973 220.698 12.7467 222.031 12.704L223.535 12.656V12.224C223.535 11.6693 223.402 11.2747 223.135 11.04C222.869 10.8053 222.495 10.688 222.015 10.688C221.578 10.688 221.157 10.752 220.751 10.88C220.346 11.008 219.951 11.1573 219.567 11.328L218.927 9.92C219.354 9.696 219.839 9.51467 220.383 9.376C220.938 9.23733 221.514 9.168 222.111 9.168ZM222.479 13.936C221.594 13.968 220.981 14.1227 220.639 14.4C220.298 14.6667 220.127 15.0293 220.127 15.488C220.127 15.8933 220.25 16.1867 220.495 16.368C220.741 16.5493 221.055 16.64 221.439 16.64C222.026 16.64 222.522 16.4747 222.927 16.144C223.333 15.8027 223.535 15.3013 223.535 14.64V13.904L222.479 13.936Z" fill="#D63832"/>
</g>
</svg>
