<svg width="276" height="24" viewBox="0 0 276 24" fill="none" xmlns="http://www.w3.org/2000/svg">
<path d="M0 12H121.5" stroke="#D63832" stroke-width="2"/>
<path d="M141.932 18L141.1 15.28H136.94L136.108 18H133.5L137.532 6.528H140.492L144.54 18H141.932ZM139.692 10.592C139.639 10.4107 139.569 10.1813 139.484 9.904C139.399 9.62667 139.313 9.344 139.228 9.056C139.143 8.768 139.073 8.51733 139.02 8.304C138.967 8.51733 138.892 8.784 138.796 9.104C138.711 9.41333 138.625 9.712 138.54 10C138.465 10.2773 138.407 10.4747 138.364 10.592L137.548 13.248H140.524L139.692 10.592ZM148.179 11.28C148.179 11.6107 148.163 11.9413 148.131 12.272C148.11 12.592 148.083 12.9173 148.051 13.248H148.083C148.19 13.0987 148.296 12.9493 148.403 12.8C148.52 12.6507 148.638 12.5013 148.755 12.352C148.872 12.2027 148.995 12.0587 149.123 11.92L151.571 9.264H154.259L150.787 13.056L154.467 18H151.715L149.203 14.464L148.179 15.28V18H145.795V5.84H148.179V11.28ZM159.301 9.088C160.474 9.088 161.37 9.344 161.989 9.856C162.618 10.3573 162.933 11.1307 162.933 12.176V18H161.269L160.805 16.816H160.741C160.495 17.1253 160.239 17.3813 159.973 17.584C159.717 17.7867 159.418 17.9307 159.077 18.016C158.746 18.112 158.335 18.16 157.845 18.16C157.333 18.16 156.869 18.064 156.453 17.872C156.047 17.6693 155.727 17.3653 155.493 16.96C155.258 16.544 155.141 16.0213 155.141 15.392C155.141 14.464 155.466 13.7813 156.117 13.344C156.767 12.896 157.743 12.6507 159.045 12.608L160.565 12.56V12.176C160.565 11.7173 160.442 11.3813 160.197 11.168C159.962 10.9547 159.631 10.848 159.205 10.848C158.778 10.848 158.362 10.912 157.957 11.04C157.551 11.1573 157.146 11.3067 156.741 11.488L155.957 9.872C156.426 9.62667 156.943 9.43467 157.509 9.296C158.085 9.15733 158.682 9.088 159.301 9.088ZM159.637 13.984C158.869 14.0053 158.335 14.144 158.037 14.4C157.738 14.656 157.589 14.992 157.589 15.408C157.589 15.7707 157.695 16.032 157.909 16.192C158.122 16.3413 158.399 16.416 158.741 16.416C159.253 16.416 159.685 16.2667 160.037 15.968C160.389 15.6587 160.565 15.2267 160.565 14.672V13.952L159.637 13.984ZM168.141 18.16C167.17 18.16 166.376 17.7813 165.757 17.024C165.149 16.256 164.845 15.1307 164.845 13.648C164.845 12.1547 165.154 11.024 165.773 10.256C166.392 9.488 167.202 9.104 168.205 9.104C168.621 9.104 168.989 9.16267 169.309 9.28C169.629 9.38667 169.901 9.536 170.125 9.728C170.36 9.92 170.557 10.1387 170.717 10.384H170.797C170.765 10.2133 170.728 9.968 170.685 9.648C170.642 9.31733 170.621 8.98133 170.621 8.64V5.84H173.005V18H171.181L170.717 16.864H170.621C170.472 17.0987 170.28 17.3173 170.045 17.52C169.821 17.712 169.554 17.8667 169.245 17.984C168.936 18.1013 168.568 18.16 168.141 18.16ZM168.973 16.256C169.634 16.256 170.098 16.064 170.365 15.68C170.632 15.2853 170.77 14.6987 170.781 13.92V13.664C170.781 12.8107 170.648 12.16 170.381 11.712C170.125 11.264 169.645 11.04 168.941 11.04C168.418 11.04 168.008 11.2693 167.709 11.728C167.41 12.176 167.261 12.8267 167.261 13.68C167.261 14.5333 167.41 15.1787 167.709 15.616C168.008 16.0427 168.429 16.256 168.973 16.256ZM179.098 9.104C179.909 9.104 180.602 9.25867 181.178 9.568C181.765 9.87733 182.218 10.3253 182.538 10.912C182.858 11.4987 183.018 12.2187 183.018 13.072V14.224H177.386C177.407 14.896 177.605 15.424 177.978 15.808C178.362 16.192 178.89 16.384 179.562 16.384C180.127 16.384 180.639 16.3307 181.098 16.224C181.557 16.1067 182.031 15.9307 182.522 15.696V17.536C182.095 17.7493 181.642 17.904 181.162 18C180.693 18.1067 180.122 18.16 179.45 18.16C178.575 18.16 177.802 18 177.13 17.68C176.458 17.3493 175.93 16.8533 175.546 16.192C175.162 15.5307 174.97 14.6987 174.97 13.696C174.97 12.672 175.141 11.824 175.482 11.152C175.834 10.4693 176.319 9.95733 176.938 9.616C177.557 9.27467 178.277 9.104 179.098 9.104ZM179.114 10.8C178.655 10.8 178.271 10.9493 177.962 11.248C177.663 11.5467 177.487 12.0107 177.434 12.64H180.778C180.778 12.288 180.714 11.9733 180.586 11.696C180.469 11.4187 180.287 11.2 180.042 11.04C179.797 10.88 179.487 10.8 179.114 10.8ZM195.207 9.104C196.199 9.104 196.946 9.36 197.447 9.872C197.959 10.3733 198.215 11.184 198.215 12.304V18H195.831V12.896C195.831 12.2667 195.724 11.7973 195.511 11.488C195.298 11.168 194.967 11.008 194.519 11.008C193.89 11.008 193.442 11.232 193.175 11.68C192.908 12.128 192.775 12.7733 192.775 13.616V18H190.391V12.896C190.391 12.48 190.343 12.1333 190.247 11.856C190.151 11.5787 190.007 11.3707 189.815 11.232C189.623 11.0827 189.378 11.008 189.079 11.008C188.642 11.008 188.295 11.12 188.039 11.344C187.783 11.568 187.602 11.8933 187.495 12.32C187.388 12.7467 187.335 13.2693 187.335 13.888V18H184.951V9.264H186.775L187.095 10.384H187.223C187.404 10.0853 187.628 9.84533 187.895 9.664C188.162 9.472 188.455 9.33333 188.775 9.248C189.106 9.152 189.436 9.104 189.767 9.104C190.407 9.104 190.951 9.21067 191.399 9.424C191.847 9.62667 192.188 9.94667 192.423 10.384H192.631C192.898 9.936 193.266 9.61067 193.735 9.408C194.215 9.20533 194.706 9.104 195.207 9.104ZM203.054 9.264V18H200.67V9.264H203.054ZM201.87 5.84C202.222 5.84 202.526 5.92533 202.782 6.096C203.038 6.256 203.166 6.56 203.166 7.008C203.166 7.44533 203.038 7.74933 202.782 7.92C202.526 8.09067 202.222 8.176 201.87 8.176C201.507 8.176 201.198 8.09067 200.942 7.92C200.697 7.74933 200.574 7.44533 200.574 7.008C200.574 6.56 200.697 6.256 200.942 6.096C201.198 5.92533 201.507 5.84 201.87 5.84ZM207.929 11.28C207.929 11.6107 207.913 11.9413 207.881 12.272C207.86 12.592 207.833 12.9173 207.801 13.248H207.833C207.94 13.0987 208.046 12.9493 208.153 12.8C208.27 12.6507 208.388 12.5013 208.505 12.352C208.622 12.2027 208.745 12.0587 208.873 11.92L211.321 9.264H214.009L210.537 13.056L214.217 18H211.465L208.953 14.464L207.929 15.28V18H205.545V5.84H207.929V11.28ZM223.303 16.256C223.57 16.256 223.826 16.2293 224.071 16.176C224.316 16.1227 224.562 16.0587 224.807 15.984V17.76C224.551 17.8667 224.231 17.9573 223.847 18.032C223.474 18.1173 223.063 18.16 222.615 18.16C222.092 18.16 221.623 18.0747 221.207 17.904C220.802 17.7333 220.476 17.44 220.231 17.024C219.996 16.5973 219.879 16.0107 219.879 15.264V11.056H218.743V10.048L220.055 9.248L220.743 7.408H222.263V9.264H224.711V11.056H222.263V15.264C222.263 15.5947 222.359 15.8453 222.551 16.016C222.743 16.176 222.994 16.256 223.303 16.256ZM229.569 9.104C230.443 9.104 231.217 9.26933 231.889 9.6C232.561 9.92 233.089 10.4107 233.473 11.072C233.857 11.7227 234.049 12.5547 234.049 13.568C234.049 14.5813 233.873 15.4293 233.521 16.112C233.179 16.7947 232.699 17.3067 232.081 17.648C231.462 17.9893 230.742 18.16 229.921 18.16C229.121 18.16 228.427 18.0053 227.841 17.696C227.254 17.3867 226.801 16.9387 226.481 16.352C226.161 15.7547 226.001 15.0347 226.001 14.192V13.04H231.633C231.611 12.368 231.409 11.84 231.025 11.456C230.651 11.072 230.129 10.88 229.457 10.88C228.902 10.88 228.39 10.9387 227.921 11.056C227.462 11.1627 226.987 11.3333 226.497 11.568V9.728C226.934 9.51467 227.387 9.36 227.857 9.264C228.326 9.15733 228.897 9.104 229.569 9.104ZM228.241 14.624C228.251 14.976 228.315 15.2907 228.433 15.568C228.55 15.8453 228.731 16.064 228.977 16.224C229.222 16.384 229.531 16.464 229.905 16.464C230.374 16.464 230.758 16.3147 231.057 16.016C231.366 15.7173 231.542 15.2533 231.585 14.624H228.241ZM241.262 18.176C241.262 17.9627 241.267 17.744 241.278 17.52C241.299 17.296 241.326 17.0773 241.358 16.864H241.262C241.038 17.2267 240.728 17.536 240.334 17.792C239.939 18.0373 239.422 18.16 238.782 18.16C237.8 18.16 237.006 17.7813 236.398 17.024C235.79 16.256 235.486 15.1307 235.486 13.648C235.486 12.656 235.624 11.824 235.902 11.152C236.19 10.4693 236.584 9.95733 237.086 9.616C237.587 9.27467 238.168 9.104 238.83 9.104C239.47 9.104 239.987 9.22667 240.382 9.472C240.787 9.71733 241.112 10.0213 241.358 10.384H241.422L241.63 9.264H243.646V21.84H241.262V18.176ZM239.63 16.288C240.067 16.288 240.414 16.2027 240.67 16.032C240.926 15.8613 241.112 15.6053 241.23 15.264C241.347 14.912 241.411 14.4747 241.422 13.952V13.664C241.422 12.8107 241.288 12.16 241.022 11.712C240.766 11.264 240.291 11.04 239.598 11.04C239.032 11.04 238.611 11.2693 238.334 11.728C238.056 12.176 237.918 12.8267 237.918 13.68C237.918 14.5547 238.056 15.2107 238.334 15.648C238.611 16.0747 239.043 16.288 239.63 16.288ZM248.219 18L244.891 9.264H247.387L249.067 14.24C249.131 14.432 249.184 14.6347 249.227 14.848C249.28 15.0613 249.317 15.2693 249.339 15.472C249.371 15.6747 249.392 15.8613 249.403 16.032H249.467C249.477 15.8507 249.499 15.6587 249.531 15.456C249.563 15.2533 249.6 15.0507 249.643 14.848C249.696 14.6347 249.755 14.432 249.819 14.24L251.499 9.264H253.995L250.667 18H248.219ZM257.632 9.264V18H255.248V9.264H257.632ZM256.448 5.84C256.8 5.84 257.104 5.92533 257.36 6.096C257.616 6.256 257.744 6.56 257.744 7.008C257.744 7.44533 257.616 7.74933 257.36 7.92C257.104 8.09067 256.8 8.176 256.448 8.176C256.085 8.176 255.776 8.09067 255.52 7.92C255.275 7.74933 255.152 7.44533 255.152 7.008C255.152 6.56 255.275 6.256 255.52 6.096C255.776 5.92533 256.085 5.84 256.448 5.84ZM270.379 9.104C271.371 9.104 272.118 9.36 272.619 9.872C273.131 10.3733 273.387 11.184 273.387 12.304V18H271.003V12.896C271.003 12.2667 270.896 11.7973 270.683 11.488C270.47 11.168 270.139 11.008 269.691 11.008C269.062 11.008 268.614 11.232 268.347 11.68C268.08 12.128 267.947 12.7733 267.947 13.616V18H265.563V12.896C265.563 12.48 265.515 12.1333 265.419 11.856C265.323 11.5787 265.179 11.3707 264.987 11.232C264.795 11.0827 264.55 11.008 264.251 11.008C263.814 11.008 263.467 11.12 263.211 11.344C262.955 11.568 262.774 11.8933 262.667 12.32C262.56 12.7467 262.507 13.2693 262.507 13.888V18H260.123V9.264H261.947L262.267 10.384H262.395C262.576 10.0853 262.8 9.84533 263.067 9.664C263.334 9.472 263.627 9.33333 263.947 9.248C264.278 9.152 264.608 9.104 264.939 9.104C265.579 9.104 266.123 9.21067 266.571 9.424C267.019 9.62667 267.36 9.94667 267.595 10.384H267.803C268.07 9.936 268.438 9.61067 268.907 9.408C269.387 9.20533 269.878 9.104 270.379 9.104Z" fill="#D63832"/>
</svg>
