<svg width="183" height="24" viewBox="0 0 183 24" fill="none" xmlns="http://www.w3.org/2000/svg">
<path d="M0 12H121.5" stroke="#D63832" stroke-width="2"/>
<path d="M139.9 18L136.764 8.64H136.7C136.711 8.85333 136.727 9.15733 136.748 9.552C136.769 9.936 136.785 10.3573 136.796 10.816C136.817 11.264 136.828 11.6853 136.828 12.08V18H134.988V6.576H137.836L140.844 15.552H140.908L144.044 6.576H146.892V18H144.94V11.984C144.94 11.6213 144.945 11.2267 144.956 10.8C144.977 10.3627 144.993 9.952 145.004 9.568C145.025 9.17333 145.041 8.86933 145.052 8.656H144.988L141.724 18H139.9ZM153.143 9.168C153.922 9.168 154.589 9.328 155.143 9.648C155.709 9.95733 156.146 10.4053 156.455 10.992C156.765 11.568 156.919 12.272 156.919 13.104V14.128H151.191C151.213 14.9173 151.431 15.5307 151.847 15.968C152.263 16.3947 152.839 16.608 153.575 16.608C154.141 16.608 154.642 16.5547 155.079 16.448C155.527 16.3307 155.986 16.1653 156.455 15.952V17.568C156.029 17.7707 155.586 17.92 155.127 18.016C154.669 18.112 154.119 18.16 153.479 18.16C152.637 18.16 151.885 18 151.223 17.68C150.573 17.3493 150.061 16.8533 149.687 16.192C149.325 15.5307 149.143 14.7093 149.143 13.728C149.143 12.736 149.309 11.904 149.639 11.232C149.981 10.5493 150.45 10.0373 151.047 9.696C151.645 9.344 152.343 9.168 153.143 9.168ZM153.143 10.656C152.61 10.656 152.173 10.832 151.831 11.184C151.501 11.5253 151.303 12.0373 151.239 12.72H154.967C154.967 12.3147 154.898 11.9573 154.759 11.648C154.631 11.3387 154.434 11.0987 154.167 10.928C153.901 10.7467 153.559 10.656 153.143 10.656ZM161.816 18.16C160.814 18.16 159.998 17.7867 159.368 17.04C158.75 16.2827 158.44 15.1627 158.44 13.68C158.44 12.1973 158.755 11.0773 159.384 10.32C160.014 9.552 160.84 9.168 161.864 9.168C162.291 9.168 162.664 9.22667 162.984 9.344C163.315 9.45067 163.598 9.6 163.832 9.792C164.067 9.984 164.264 10.1973 164.424 10.432H164.52C164.488 10.2827 164.456 10.0533 164.424 9.744C164.392 9.43467 164.376 9.14667 164.376 8.88V5.84H166.392V18H164.824L164.456 16.864H164.376C164.216 17.0987 164.019 17.3173 163.784 17.52C163.55 17.712 163.272 17.8667 162.952 17.984C162.632 18.1013 162.254 18.16 161.816 18.16ZM162.424 16.528C163.171 16.528 163.699 16.3147 164.008 15.888C164.318 15.4613 164.472 14.816 164.472 13.952V13.696C164.472 12.7573 164.323 12.0427 164.024 11.552C163.736 11.0613 163.192 10.816 162.392 10.816C161.784 10.816 161.315 11.072 160.984 11.584C160.654 12.0853 160.488 12.7947 160.488 13.712C160.488 14.6293 160.654 15.328 160.984 15.808C161.315 16.288 161.795 16.528 162.424 16.528ZM170.984 9.328V18H168.968V9.328H170.984ZM169.976 5.984C170.275 5.984 170.536 6.064 170.76 6.224C170.984 6.37333 171.096 6.64533 171.096 7.04C171.096 7.424 170.984 7.70133 170.76 7.872C170.536 8.032 170.275 8.112 169.976 8.112C169.667 8.112 169.4 8.032 169.176 7.872C168.963 7.70133 168.856 7.424 168.856 7.04C168.856 6.64533 168.963 6.37333 169.176 6.224C169.4 6.064 169.667 5.984 169.976 5.984ZM177.018 9.168C178.138 9.168 178.986 9.41333 179.562 9.904C180.148 10.384 180.442 11.1413 180.442 12.176V18H179.018L178.618 16.8H178.554C178.308 17.1093 178.052 17.3707 177.786 17.584C177.53 17.7867 177.231 17.9307 176.89 18.016C176.559 18.112 176.154 18.16 175.674 18.16C175.162 18.16 174.698 18.064 174.282 17.872C173.876 17.68 173.556 17.3867 173.322 16.992C173.087 16.5867 172.97 16.08 172.97 15.472C172.97 14.576 173.295 13.904 173.946 13.456C174.607 12.9973 175.604 12.7467 176.938 12.704L178.442 12.656V12.224C178.442 11.6693 178.308 11.2747 178.042 11.04C177.775 10.8053 177.402 10.688 176.922 10.688C176.484 10.688 176.063 10.752 175.658 10.88C175.252 11.008 174.858 11.1573 174.474 11.328L173.834 9.92C174.26 9.696 174.746 9.51467 175.29 9.376C175.844 9.23733 176.42 9.168 177.018 9.168ZM177.386 13.936C176.5 13.968 175.887 14.1227 175.546 14.4C175.204 14.6667 175.034 15.0293 175.034 15.488C175.034 15.8933 175.156 16.1867 175.402 16.368C175.647 16.5493 175.962 16.64 176.346 16.64C176.932 16.64 177.428 16.4747 177.834 16.144C178.239 15.8027 178.442 15.3013 178.442 14.64V13.904L177.386 13.936Z" fill="#D63832"/>
</svg>
