<svg width="224" height="24" viewBox="0 0 224 24" fill="none" xmlns="http://www.w3.org/2000/svg">
<g opacity="0.8">
<path d="M0 12H121.5" stroke="#D63832" stroke-width="2"/>
<path d="M138.396 6.576C139.879 6.576 140.956 6.88533 141.628 7.504C142.311 8.12267 142.652 8.976 142.652 10.064C142.652 10.5547 142.577 11.024 142.428 11.472C142.279 11.9093 142.028 12.304 141.676 12.656C141.324 13.008 140.86 13.2853 140.284 13.488C139.719 13.6907 139.015 13.792 138.172 13.792H137.036V18H134.988V6.576H138.396ZM138.268 8.272H137.036V12.096H137.964C138.519 12.096 138.988 12.032 139.372 11.904C139.767 11.7653 140.065 11.552 140.268 11.264C140.471 10.976 140.572 10.6027 140.572 10.144C140.572 9.51467 140.385 9.04533 140.012 8.736C139.639 8.42667 139.057 8.272 138.268 8.272ZM149.246 9.168C149.374 9.168 149.524 9.17333 149.694 9.184C149.865 9.19467 150.009 9.216 150.126 9.248L149.95 11.12C149.854 11.0987 149.726 11.0827 149.566 11.072C149.417 11.0507 149.284 11.04 149.166 11.04C148.846 11.04 148.537 11.0933 148.238 11.2C147.95 11.296 147.689 11.4453 147.454 11.648C147.23 11.84 147.049 12.0907 146.91 12.4C146.782 12.7093 146.718 13.0773 146.718 13.504V18H144.702V9.328H146.254L146.542 10.832H146.638C146.809 10.5227 147.022 10.2453 147.278 10C147.534 9.744 147.828 9.54133 148.158 9.392C148.5 9.24267 148.862 9.168 149.246 9.168ZM159.165 13.648C159.165 14.3733 159.069 15.0133 158.877 15.568C158.685 16.1227 158.408 16.5973 158.045 16.992C157.693 17.376 157.256 17.6693 156.733 17.872C156.221 18.064 155.65 18.16 155.021 18.16C154.424 18.16 153.874 18.064 153.373 17.872C152.872 17.6693 152.434 17.376 152.061 16.992C151.698 16.5973 151.416 16.1227 151.213 15.568C151.01 15.0133 150.909 14.3733 150.909 13.648C150.909 12.688 151.074 11.8773 151.405 11.216C151.736 10.544 152.21 10.0373 152.829 9.696C153.458 9.344 154.2 9.168 155.053 9.168C155.864 9.168 156.573 9.344 157.181 9.696C157.8 10.0373 158.285 10.544 158.637 11.216C158.989 11.8773 159.165 12.688 159.165 13.648ZM152.973 13.648C152.973 14.256 153.042 14.7787 153.181 15.216C153.33 15.6427 153.554 15.968 153.853 16.192C154.162 16.416 154.557 16.528 155.037 16.528C155.528 16.528 155.922 16.416 156.221 16.192C156.53 15.968 156.754 15.6427 156.893 15.216C157.032 14.7787 157.101 14.256 157.101 13.648C157.101 13.0293 157.026 12.512 156.877 12.096C156.738 11.6693 156.514 11.3493 156.205 11.136C155.906 10.912 155.517 10.8 155.037 10.8C154.312 10.8 153.784 11.0453 153.453 11.536C153.133 12.0267 152.973 12.7307 152.973 13.648ZM166.673 18.176C166.673 17.9733 166.678 17.7547 166.689 17.52C166.7 17.2747 166.721 17.056 166.753 16.864H166.657C166.422 17.216 166.102 17.52 165.697 17.776C165.292 18.032 164.758 18.16 164.097 18.16C163.094 18.16 162.284 17.7867 161.665 17.04C161.046 16.2827 160.737 15.1627 160.737 13.68C160.737 12.688 160.881 11.8613 161.169 11.2C161.457 10.528 161.857 10.0213 162.369 9.68C162.881 9.33867 163.473 9.168 164.145 9.168C164.796 9.168 165.329 9.296 165.745 9.552C166.161 9.79733 166.492 10.1013 166.737 10.464H166.801L167.009 9.328H168.689V21.84H166.673V18.176ZM164.737 16.56C165.228 16.56 165.617 16.4693 165.905 16.288C166.204 16.096 166.417 15.808 166.545 15.424C166.684 15.04 166.758 14.56 166.769 13.984V13.696C166.769 12.7573 166.62 12.0427 166.321 11.552C166.022 11.0613 165.484 10.816 164.705 10.816C164.065 10.816 163.585 11.072 163.265 11.584C162.956 12.0853 162.801 12.7947 162.801 13.712C162.801 14.64 162.956 15.3493 163.265 15.84C163.585 16.32 164.076 16.56 164.737 16.56ZM175.809 9.168C175.937 9.168 176.086 9.17333 176.257 9.184C176.427 9.19467 176.571 9.216 176.689 9.248L176.513 11.12C176.417 11.0987 176.289 11.0827 176.129 11.072C175.979 11.0507 175.846 11.04 175.729 11.04C175.409 11.04 175.099 11.0933 174.801 11.2C174.513 11.296 174.251 11.4453 174.017 11.648C173.793 11.84 173.611 12.0907 173.473 12.4C173.345 12.7093 173.281 13.0773 173.281 13.504V18H171.265V9.328H172.817L173.105 10.832H173.201C173.371 10.5227 173.585 10.2453 173.841 10C174.097 9.744 174.39 9.54133 174.721 9.392C175.062 9.24267 175.425 9.168 175.809 9.168ZM181.44 9.168C182.56 9.168 183.408 9.41333 183.984 9.904C184.57 10.384 184.864 11.1413 184.864 12.176V18H183.44L183.04 16.8H182.976C182.73 17.1093 182.474 17.3707 182.208 17.584C181.952 17.7867 181.653 17.9307 181.312 18.016C180.981 18.112 180.576 18.16 180.096 18.16C179.584 18.16 179.12 18.064 178.704 17.872C178.298 17.68 177.978 17.3867 177.743 16.992C177.509 16.5867 177.392 16.08 177.392 15.472C177.392 14.576 177.717 13.904 178.368 13.456C179.029 12.9973 180.026 12.7467 181.36 12.704L182.864 12.656V12.224C182.864 11.6693 182.73 11.2747 182.464 11.04C182.197 10.8053 181.824 10.688 181.344 10.688C180.906 10.688 180.485 10.752 180.08 10.88C179.674 11.008 179.28 11.1573 178.896 11.328L178.256 9.92C178.682 9.696 179.168 9.51467 179.712 9.376C180.266 9.23733 180.842 9.168 181.44 9.168ZM181.808 13.936C180.922 13.968 180.309 14.1227 179.968 14.4C179.626 14.6667 179.456 15.0293 179.456 15.488C179.456 15.8933 179.578 16.1867 179.824 16.368C180.069 16.5493 180.384 16.64 180.768 16.64C181.354 16.64 181.85 16.4747 182.256 16.144C182.661 15.8027 182.864 15.3013 182.864 14.64V13.904L181.808 13.936ZM197.326 9.168C198.307 9.168 199.043 9.41867 199.534 9.92C200.035 10.4213 200.286 11.232 200.286 12.352V18H198.27V12.736C198.27 12.096 198.152 11.616 197.918 11.296C197.683 10.9653 197.31 10.8 196.798 10.8C196.094 10.8 195.592 11.0293 195.294 11.488C194.995 11.9467 194.846 12.6133 194.846 13.488V18H192.83V12.736C192.83 12.3093 192.776 11.952 192.67 11.664C192.563 11.376 192.398 11.1627 192.174 11.024C191.96 10.8747 191.683 10.8 191.342 10.8C190.862 10.8 190.478 10.9173 190.19 11.152C189.902 11.376 189.699 11.7067 189.582 12.144C189.464 12.5813 189.406 13.12 189.406 13.76V18H187.39V9.328H188.942L189.23 10.464H189.342C189.523 10.1653 189.742 9.92 189.998 9.728C190.264 9.536 190.558 9.39733 190.878 9.312C191.208 9.216 191.539 9.168 191.87 9.168C192.52 9.168 193.07 9.28 193.518 9.504C193.966 9.71733 194.302 10.0533 194.526 10.512H194.686C194.952 10.0427 195.326 9.70133 195.806 9.488C196.296 9.27467 196.803 9.168 197.326 9.168ZM204.828 18H202.812V5.84H204.828V18ZM210.861 9.168C211.981 9.168 212.829 9.41333 213.405 9.904C213.992 10.384 214.285 11.1413 214.285 12.176V18H212.861L212.461 16.8H212.397C212.152 17.1093 211.896 17.3707 211.629 17.584C211.373 17.7867 211.075 17.9307 210.733 18.016C210.403 18.112 209.997 18.16 209.517 18.16C209.005 18.16 208.541 18.064 208.125 17.872C207.72 17.68 207.4 17.3867 207.165 16.992C206.931 16.5867 206.813 16.08 206.813 15.472C206.813 14.576 207.139 13.904 207.789 13.456C208.451 12.9973 209.448 12.7467 210.781 12.704L212.285 12.656V12.224C212.285 11.6693 212.152 11.2747 211.885 11.04C211.619 10.8053 211.245 10.688 210.765 10.688C210.328 10.688 209.907 10.752 209.501 10.88C209.096 11.008 208.701 11.1573 208.317 11.328L207.677 9.92C208.104 9.696 208.589 9.51467 209.133 9.376C209.688 9.23733 210.264 9.168 210.861 9.168ZM211.229 13.936C210.344 13.968 209.731 14.1227 209.389 14.4C209.048 14.6667 208.877 15.0293 208.877 15.488C208.877 15.8933 209 16.1867 209.245 16.368C209.491 16.5493 209.805 16.64 210.189 16.64C210.776 16.64 211.272 16.4747 211.677 16.144C212.083 15.8027 212.285 15.3013 212.285 14.64V13.904L211.229 13.936ZM221.356 9.168C221.484 9.168 221.633 9.17333 221.804 9.184C221.974 9.19467 222.118 9.216 222.236 9.248L222.06 11.12C221.964 11.0987 221.836 11.0827 221.676 11.072C221.526 11.0507 221.393 11.04 221.276 11.04C220.956 11.04 220.646 11.0933 220.348 11.2C220.06 11.296 219.798 11.4453 219.564 11.648C219.34 11.84 219.158 12.0907 219.02 12.4C218.892 12.7093 218.828 13.0773 218.828 13.504V18H216.812V9.328H218.364L218.652 10.832H218.748C218.918 10.5227 219.132 10.2453 219.388 10C219.644 9.744 219.937 9.54133 220.268 9.392C220.609 9.24267 220.972 9.168 221.356 9.168Z" fill="#D63832"/>
</g>
</svg>
